<svg width="115" height="40" viewBox="0 0 115 40" fill="none" xmlns="http://www.w3.org/2000/svg">
<path d="M23.1008 10.0582C23.2669 9.8324 23.4329 9.60661 23.5851 9.38082C24.8858 7.53214 26.7537 7.03821 28.8431 7.137C29.3135 7.16522 29.0091 7.6027 29.2028 7.89905C33.1601 2.38123 38.4873 -0.427072 45.1842 0.0527384C51.8812 0.518437 56.7379 4.06057 59.865 10.1005C62.8122 6.3185 68.0563 5.99392 70.6576 10.1993C70.7683 9.60661 70.6992 9.11269 70.713 8.63288C70.713 7.63092 70.6161 7.74382 71.5985 7.74382C72.7332 7.74382 73.8539 7.74382 74.9885 7.74382C75.625 7.74382 75.6389 7.74382 75.6389 8.40708C75.6389 11.4271 75.6665 14.447 75.6665 17.467C75.6804 21.5031 75.6804 25.5391 75.7081 29.5893C75.7219 31.311 75.542 33.0044 74.864 34.6132C73.5357 37.732 71.1558 39.4254 67.8903 39.8911C66.05 40.1592 64.2789 39.9334 62.577 39.1996C58.7996 37.5626 57.5958 33.9923 57.5266 31.3392C57.5266 30.9441 57.6373 30.8312 58.0109 30.8312C59.187 30.8453 60.377 30.8453 61.5531 30.8312C61.9405 30.8312 62.1204 30.9299 62.1204 31.3674C62.1204 32.1859 62.3971 32.948 62.9091 33.583C63.7531 34.6555 64.9154 35.0224 66.1884 35.0083C68.845 34.9801 70.8652 33.1032 70.8099 30.3231C70.7822 29.2647 70.8099 28.2063 70.8099 27.1761C70.6161 27.1197 70.6023 27.2185 70.5608 27.2749C69.5784 28.9825 68.0287 29.6599 66.1746 29.7869C63.3934 29.9703 61.1518 28.9543 59.5053 26.6399C59.4637 26.5693 59.4222 26.5129 59.3115 26.3435C56.4197 31.2545 52.2825 34.2039 46.8447 35.1918C43.1087 35.8692 39.525 35.2624 36.135 33.5971C33.7136 32.4117 31.6796 30.7183 30.0192 28.545C28.3588 26.3576 27.2795 23.9021 26.7122 21.1785C26.1588 18.4831 26.2556 15.8159 26.9613 13.1911C26.7399 12.9794 26.5324 13.0782 26.3386 13.1205C24.7474 13.5157 23.7097 14.7716 23.4329 16.6203C23.3499 17.2271 23.2946 17.8339 23.2946 18.4549C23.3222 21.8841 23.3499 25.2992 23.3637 28.7285C23.3637 28.9119 23.3637 29.0954 23.3637 29.2929C23.3637 29.5329 23.2392 29.6175 23.0317 29.6175C21.6203 29.6175 20.1951 29.6175 18.7838 29.6175C18.424 29.6175 18.4379 29.3635 18.4379 29.1236C18.4379 27.7124 18.424 26.2871 18.4102 24.8759C18.3964 19.4427 18.3687 14.0237 18.3548 8.59054C18.3548 8.47764 18.3548 8.37886 18.3548 8.26596C18.3133 7.89905 18.424 7.7297 18.8253 7.74382C20.0291 7.77204 21.2329 7.77204 22.4367 7.74382C22.8795 7.74382 22.9625 7.92727 22.9486 8.3083C22.921 8.88689 22.9486 9.46549 22.9486 10.0441C22.9763 10.0441 23.0178 10.0441 23.0593 10.0723M55.9907 17.6787C56.0184 16.6626 55.9215 15.5901 55.631 14.5599C53.8737 8.29419 47.7164 4.46982 41.4483 5.76813C38.8609 6.30439 36.647 7.58858 34.8759 9.60661C32.0394 12.8383 31.0985 16.6203 32.1777 20.7834C33.6583 26.5129 39.2206 30.7747 45.9176 29.7022C51.8674 28.7285 56.1291 23.3235 55.9907 17.6787ZM62.577 18.5254C62.577 19.0335 62.5355 19.5415 62.577 20.0495C62.7015 21.4607 63.089 22.7732 64.0022 23.888C65.5104 25.7085 67.9318 25.7367 69.4815 23.9304C70.0488 23.2671 70.3948 22.505 70.6161 21.6724C71.0451 19.9508 70.9482 18.2291 70.6715 16.4933C70.5331 15.5901 70.2841 14.7152 69.8136 13.939C69.191 12.9229 68.3054 12.3302 67.1293 12.2315C65.1091 12.0621 63.767 12.9512 63.0751 14.8986C62.66 16.0699 62.5493 17.2977 62.5908 18.5254" fill="#0E7673"/>
<path d="M90.7464 27.1488C90.5527 27.1065 90.525 27.1912 90.4973 27.2476C89.5149 28.9552 87.9652 29.6326 86.1111 29.7596C82.1123 30.0136 79.6632 27.7415 78.4871 24.7639C77.5323 22.3366 77.2833 19.7964 77.4355 17.1998C77.5462 15.4782 77.9197 13.8129 78.6116 12.2465C79.2204 10.8635 80.0506 9.63576 81.2267 8.69025C82.7903 7.43427 84.5337 6.91213 86.5262 7.2367C87.979 7.47661 89.1137 8.21044 89.9992 9.38174C90.1653 9.60753 90.3313 9.84744 90.5942 10.2002C90.7049 9.52286 90.6357 8.9866 90.6495 8.45034C90.6495 7.73063 90.6495 7.73063 91.3829 7.73063C92.5867 7.73063 93.7905 7.73063 94.9943 7.73063C95.5477 7.73063 95.5616 7.73063 95.5616 8.30922C95.5754 11.3857 95.5892 14.4621 95.6031 17.5385C95.6031 21.5463 95.6031 25.5683 95.6446 29.5761C95.6446 31.2978 95.4785 32.9912 94.8005 34.5859C93.4722 37.7047 91.0785 39.3981 87.8268 39.8638C85.945 40.1319 84.1048 39.9203 82.3752 39.0877C79.1512 37.5494 77.6707 34.8399 77.477 31.2978C77.4493 30.9027 77.5877 30.7898 77.9613 30.7898C79.1374 30.8039 80.3273 30.8039 81.5035 30.7898C81.8909 30.7898 82.0708 30.8885 82.0708 31.326C82.0708 32.1163 82.3337 32.8501 82.8041 33.4852C83.6481 34.6 84.8243 34.981 86.1388 34.9669C88.7816 34.9387 90.8156 33.0759 90.7464 30.2817C90.7187 29.2374 90.7464 28.179 90.7464 27.1488ZM90.8709 18.9921C90.8017 17.5385 90.7187 15.9862 90.0961 14.5326C89.4319 12.9803 88.2835 12.1618 86.5954 12.19C84.9073 12.2042 83.7727 13.0368 83.15 14.6173C83.0393 14.8854 82.9425 15.1677 82.8733 15.4499C82.4444 17.101 82.4167 18.7804 82.6242 20.4597C82.7903 21.8568 83.2746 23.1551 84.2708 24.1853C85.6406 25.5824 87.7438 25.6106 89.1552 24.2418C89.764 23.6632 90.1653 22.9576 90.442 22.1532C90.7741 21.1653 90.8848 20.121 90.8848 18.9921" fill="#0E7673"/>
<path d="M11.8095 27.7406C10.7441 28.9543 9.5403 29.674 8.11511 29.9844C6.64842 30.309 5.19556 30.2808 3.75655 29.8574C1.57034 29.2083 0.449569 27.5854 0.117487 25.3839C-0.0900634 24.0574 -0.0208797 22.7167 0.311202 21.4043C0.74014 19.7109 1.73638 18.4549 3.2861 17.6928C4.5314 17.0719 5.87356 16.8602 7.20189 16.5921C7.99058 16.4227 8.79311 16.2816 9.59564 16.1123C9.81703 16.0699 10.0523 15.9853 10.2736 15.9006C11.0623 15.6184 11.5328 15.0821 11.5881 14.193C11.6573 13.2475 11.3806 12.4996 10.5227 12.0621C9.33274 11.4553 8.10128 11.4271 6.86981 11.8928C6.4132 12.0621 6.08111 12.4008 5.81822 12.8242C5.52765 13.304 5.30626 13.8261 5.23707 14.3906C5.19556 14.7011 5.07103 14.8563 4.73895 14.8422C3.50748 14.8281 2.27602 14.8281 1.04455 14.8422C0.643283 14.8422 0.546426 14.687 0.587936 14.3201C0.684793 13.6003 0.74014 12.8806 0.906181 12.1891C1.48732 9.83241 2.92634 8.2942 5.2094 7.61682C7.36793 6.96766 9.55413 6.95355 11.7265 7.51804C14.563 8.25186 15.9605 10.2699 16.431 13.1064C16.6385 14.3201 16.6385 15.5619 16.6385 16.7897C16.6662 20.741 16.6939 24.7065 16.7216 28.6579C16.7216 28.8414 16.7216 29.0248 16.7216 29.2224C16.7354 29.4764 16.6524 29.6175 16.3756 29.6175C15.0611 29.6175 13.7605 29.6175 12.446 29.6175C12.1693 29.6175 12.0863 29.4482 12.0447 29.2224C11.9617 28.7849 11.8925 28.3333 11.7957 27.7547M11.7542 19.0053C11.2145 19.3581 10.7718 19.6121 10.2598 19.7532C9.73401 19.8943 9.19438 20.0213 8.66858 20.1624C8.05977 20.3318 7.45095 20.4729 6.86981 20.7269C5.41695 21.3479 4.89116 22.1664 4.93267 23.7469C4.97418 25.2287 5.7352 26.0048 7.18805 26.0472C9.20821 26.1036 10.9932 24.7065 11.5605 22.6038C11.8649 21.4466 11.685 20.2895 11.7542 19.0053Z" fill="#0E7673"/>
<path d="M109.137 27.783C108.791 28.1076 108.542 28.3757 108.265 28.6015C106.647 29.9422 104.751 30.3091 102.731 30.1539C102.371 30.1256 101.997 30.0833 101.638 29.9986C99.2716 29.4906 97.7495 27.8254 97.4313 25.3275C97.2653 24.0574 97.3068 22.7591 97.6112 21.5032C98.0401 19.7391 99.0502 18.4549 100.669 17.6647C101.887 17.072 103.215 16.8603 104.516 16.5922C105.304 16.4228 106.107 16.2817 106.909 16.1123C107.131 16.07 107.366 15.9853 107.587 15.9148C108.418 15.6325 108.874 15.068 108.93 14.1508C108.985 13.1911 108.667 12.4714 107.809 12.0481C106.647 11.4836 105.429 11.4271 104.225 11.8928C103.27 12.2597 102.897 13.1347 102.634 14.052C102.413 14.8281 102.426 14.8423 101.61 14.8423C100.558 14.8423 99.5206 14.8423 98.4691 14.8423C97.8879 14.8423 97.8741 14.8281 97.9294 14.2778C97.9986 13.671 98.0678 13.0641 98.1923 12.4573C98.7043 9.94537 100.185 8.32248 102.592 7.61688C104.723 6.99594 106.896 6.96772 109.04 7.51809C111.905 8.25192 113.316 10.2982 113.772 13.1629C113.966 14.3624 113.966 15.562 113.98 16.7615C114.008 20.7411 114.035 24.7207 114.063 28.7144C114.063 28.8697 114.063 29.039 114.063 29.1942C114.091 29.5047 113.966 29.6176 113.662 29.6176C112.403 29.6176 111.143 29.6176 109.884 29.6176C109.552 29.6176 109.414 29.4906 109.372 29.166C109.317 28.7426 109.248 28.3334 109.151 27.7971M109.082 19.0194C108.113 19.7109 107.089 19.9085 106.079 20.1625C105.443 20.3177 104.82 20.4871 104.211 20.7411C102.745 21.3761 102.205 22.2229 102.274 23.8458C102.329 25.2287 103.077 25.9908 104.447 26.0613C106.494 26.1601 108.321 24.7348 108.888 22.618C109.193 21.4608 109.013 20.3036 109.082 19.0335" fill="#0E7673"/>
<path d="M41.4893 11.2722C41.4893 10.2561 41.4893 9.24002 41.4893 8.22395C41.4893 7.88526 41.5724 7.74414 41.9321 7.74414C43.5095 7.74414 45.073 7.75825 46.6504 7.74414C47.0517 7.74414 47.1209 7.91349 47.1209 8.26629C47.1209 10.2138 47.1209 12.1612 47.1209 14.1228C47.1209 14.9413 47.0655 14.8848 47.8957 14.8848C49.7499 14.8848 51.6178 14.8848 53.4719 14.8848C54.0808 14.8848 54.0808 14.8848 54.0946 15.4917C54.0946 17.0158 54.0946 18.5399 54.0946 20.064C54.0946 20.4873 53.9562 20.6002 53.555 20.6002C51.6178 20.5861 49.6807 20.6002 47.7435 20.6002C47.0794 20.6002 47.107 20.572 47.107 21.2635C47.107 23.1827 47.107 25.1161 47.107 27.0353C47.107 27.6563 47.107 27.6563 46.5121 27.6704C45.0454 27.6704 43.5787 27.6704 42.112 27.6704C41.4893 27.6704 41.4893 27.6704 41.4893 26.993C41.4893 25.0738 41.4893 23.1404 41.4893 21.2212C41.4893 20.6143 41.4893 20.6143 40.8944 20.6143C38.9849 20.6143 37.0616 20.6143 35.1521 20.6143C34.5156 20.6143 34.5156 20.6143 34.5156 19.9652C34.5156 18.4975 34.5156 17.0299 34.5156 15.5622C34.5156 14.9272 34.5156 14.9131 35.1798 14.9131C37.0616 14.9131 38.9572 14.9131 40.839 14.9131C41.4755 14.9131 41.4893 14.9131 41.4893 14.2639C41.5032 13.2761 41.4893 12.2882 41.4893 11.3004" fill="#D92D20"/>
</svg>
