<svg width="220" height="70" viewBox="0 0 220 70" fill="none" xmlns="http://www.w3.org/2000/svg" role="img" aria-labelledby="title desc">
  <title id="title">Arogga logo</title>
  <desc id="desc">Arogga healthcare ecommerce wordmark with a medical plus symbol.</desc>
  <defs>
    <linearGradient id="markGradient" x1="10" y1="8" x2="64" y2="62" gradientUnits="userSpaceOnUse">
      <stop stop-color="#10B981"/>
      <stop offset="1" stop-color="#087B75"/>
    </linearGradient>
    <linearGradient id="textGradient" x1="76" y1="18" x2="214" y2="54" gradientUnits="userSpaceOnUse">
      <stop stop-color="#063F3B"/>
      <stop offset="1" stop-color="#087B75"/>
    </linearGradient>
    <filter id="softShadow" x="0" y="0" width="76" height="76" filterUnits="userSpaceOnUse" color-interpolation-filters="sRGB">
      <feDropShadow dx="0" dy="10" stdDeviation="8" flood-color="#087B75" flood-opacity="0.18"/>
    </filter>
  </defs>
  <rect x="8" y="8" width="54" height="54" rx="18" fill="url(#markGradient)" filter="url(#softShadow)"/>
  <path d="M35 20C37.2091 20 39 21.7909 39 24V31H46C48.2091 31 50 32.7909 50 35C50 37.2091 48.2091 39 46 39H39V46C39 48.2091 37.2091 50 35 50C32.7909 50 31 48.2091 31 46V39H24C21.7909 39 20 37.2091 20 35C20 32.7909 21.7909 31 24 31H31V24C31 21.7909 32.7909 20 35 20Z" fill="white"/>
  <path d="M82.492 48L93.064 20.8H101.392L111.964 48H104.924L102.908 42.68H91.468L89.452 48H82.492ZM93.292 37.72H101.084L97.188 27.3L93.292 37.72ZM115.082 48V28.112H121.134V31.628C122.551 29.156 124.859 27.92 128.058 27.92H128.818V34.276H127.486C125.318 34.276 123.745 34.77 122.766 35.758C121.813 36.746 121.336 38.266 121.336 40.318V48H115.082ZM141.463 48.532C138.416 48.532 135.918 47.582 133.969 45.682C132.02 43.756 131.045 41.272 131.045 38.228C131.045 35.184 132.02 32.712 133.969 30.812C135.944 28.886 138.442 27.924 141.463 27.924C144.51 27.924 147.008 28.886 148.957 30.812C150.932 32.712 151.919 35.184 151.919 38.228C151.919 41.272 150.932 43.756 148.957 45.682C147.008 47.582 144.51 48.532 141.463 48.532ZM141.463 43.116C142.79 43.116 143.869 42.66 144.7 41.748C145.556 40.81 145.984 39.636 145.984 38.228C145.984 36.82 145.556 35.658 144.7 34.746C143.869 33.808 142.79 33.34 141.463 33.34C140.162 33.34 139.083 33.808 138.227 34.746C137.396 35.658 136.981 36.82 136.981 38.228C136.981 39.636 137.396 40.81 138.227 41.748C139.083 42.66 140.162 43.116 141.463 43.116ZM164.619 55.6C161.572 55.6 159.126 54.98 157.281 53.74C155.462 52.526 154.423 50.792 154.163 48.538H160.377C160.611 49.242 161.117 49.774 161.895 50.134C162.699 50.52 163.671 50.714 164.813 50.714C166.348 50.714 167.502 50.342 168.274 49.596C169.072 48.852 169.471 47.75 169.471 46.29V44.656C168.066 46.294 166.089 47.112 163.541 47.112C160.755 47.112 158.505 46.23 156.789 44.466C155.099 42.702 154.254 40.394 154.254 37.542C154.254 34.69 155.099 32.382 156.789 30.618C158.505 28.854 160.755 27.972 163.541 27.972C166.219 27.972 168.287 28.93 169.743 30.846V28.112H175.509V46.1C175.509 49.118 174.559 51.45 172.659 53.096C170.759 54.766 168.079 55.6 164.619 55.6ZM164.927 42.038C166.227 42.038 167.293 41.622 168.123 40.79C168.953 39.958 169.367 38.876 169.367 37.542C169.367 36.208 168.953 35.126 168.123 34.294C167.293 33.462 166.227 33.046 164.927 33.046C163.626 33.046 162.56 33.462 161.73 34.294C160.9 35.126 160.485 36.208 160.485 37.542C160.485 38.876 160.9 39.958 161.73 40.79C162.56 41.622 163.626 42.038 164.927 42.038ZM188.678 55.6C185.631 55.6 183.185 54.98 181.34 53.74C179.521 52.526 178.482 50.792 178.222 48.538H184.436C184.67 49.242 185.176 49.774 185.954 50.134C186.758 50.52 187.73 50.714 188.872 50.714C190.407 50.714 191.561 50.342 192.333 49.596C193.131 48.852 193.53 47.75 193.53 46.29V44.656C192.125 46.294 190.148 47.112 187.6 47.112C184.814 47.112 182.564 46.23 180.848 44.466C179.158 42.702 178.313 40.394 178.313 37.542C178.313 34.69 179.158 32.382 180.848 30.618C182.564 28.854 184.814 27.972 187.6 27.972C190.278 27.972 192.346 28.93 193.802 30.846V28.112H199.568V46.1C199.568 49.118 198.618 51.45 196.718 53.096C194.818 54.766 192.138 55.6 188.678 55.6ZM188.986 42.038C190.286 42.038 191.352 41.622 192.182 40.79C193.012 39.958 193.426 38.876 193.426 37.542C193.426 36.208 193.012 35.126 192.182 34.294C191.352 33.462 190.286 33.046 188.986 33.046C187.685 33.046 186.619 33.462 185.789 34.294C184.959 35.126 184.544 36.208 184.544 37.542C184.544 38.876 184.959 39.958 185.789 40.79C186.619 41.622 187.685 42.038 188.986 42.038Z" fill="url(#textGradient)"/>
</svg>
